<?xml version="1.0" standalone="no"?>
<!DOCTYPE svg PUBLIC "-//W3C//DTD SVG 20010904//EN"
 "http://www.w3.org/TR/2001/REC-SVG-20010904/DTD/svg10.dtd">
<svg version="1.0" xmlns="http://www.w3.org/2000/svg"
 width="1536.000000pt" height="1024.000000pt" viewBox="0 0 1536.000000 1024.000000"
 preserveAspectRatio="xMidYMid meet">

<g transform="translate(0.000000,1024.000000) scale(0.100000,-0.100000)"
fill="#000000" stroke="none">
<path d="M6100 7879 c-383 -29 -722 -231 -922 -549 -65 -105 -108 -207 -140
-342 l-23 -93 0 -1605 c0 -1517 1 -1610 18 -1688 95 -432 378 -748 782 -875
190 -60 136 -58 1915 -55 l1625 4 105 26 c138 35 262 88 371 159 291 191 474
495 510 849 7 71 9 599 7 1640 -4 1371 -6 1542 -20 1605 -29 122 -59 207 -105
297 -168 326 -460 537 -853 615 -77 15 -227 17 -1625 19 -847 1 -1587 -2
-1645 -7z m2108 -1014 c436 -219 771 -389 791 -402 2 -2 2 -5 0 -8 -11 -10
-266 74 -1172 388 l-147 51 -63 -21 c-34 -12 -260 -88 -502 -170 -443 -151
-745 -247 -752 -239 -7 7 236 132 782 402 292 145 531 263 533 263 1 1 239
-118 530 -264z m-239 -305 c163 -61 433 -161 601 -223 l305 -113 0 -1137 c0
-798 -3 -1137 -11 -1137 -11 0 -114 17 -151 25 l-23 5 0 1054 0 1053 -372 128
c-205 70 -437 150 -515 177 l-143 50 0 105 0 105 -33 -29 c-25 -21 -33 -35
-30 -55 1 -15 -3 -30 -9 -34 -7 -5 -8 -3 -3 6 5 9 4 11 -4 6 -6 -4 -9 -12 -5
-17 3 -5 10 -7 15 -4 5 4 9 -15 9 -44 0 -44 -4 -52 -32 -75 -18 -14 -29 -26
-24 -26 11 0 71 52 69 60 -1 3 7 7 18 7 11 1 17 -2 15 -6 -16 -25 -506 -390
-526 -391 -3 0 -3 39 -2 87 l4 88 66 50 c60 45 137 110 390 323 47 39 88 72
90 72 3 0 138 -50 301 -110z m-1319 -1410 c0 -643 -3 -1170 -7 -1170 -15 0
-138 -21 -155 -26 -17 -5 -18 56 -18 1180 l0 1186 90 0 90 0 0 -1170z m1437
838 l413 -122 0 -929 0 -929 -82 7 c-46 4 -85 9 -88 10 -3 2 -5 82 -5 179 0
148 -2 177 -15 181 -8 2 -145 38 -305 80 -159 42 -301 80 -315 84 -25 8 -25
10 -28 125 -2 109 -1 117 15 112 10 -3 63 -16 118 -30 55 -14 192 -50 304 -81
113 -30 206 -55 208 -55 2 0 3 45 3 100 l0 99 -57 17 c-32 8 -94 26 -138 39
-44 13 -164 47 -267 75 l-188 52 0 114 c0 70 4 114 10 114 10 0 114 -29 456
-126 106 -30 194 -54 198 -54 3 0 6 43 6 95 0 82 -3 97 -17 103 -10 4 -160 47
-333 97 l-315 91 -3 118 c-2 109 -1 117 15 112 37 -11 605 -176 626 -181 22
-6 22 -4 19 99 l-3 105 -82 25 c-45 13 -183 54 -307 90 -124 37 -235 71 -247
76 -22 9 -23 15 -23 120 0 60 3 110 7 110 4 0 193 -55 420 -122z m-624 -178
c-4 -4 -84 -46 -176 -94 l-168 -88 3 103 3 103 50 29 c28 16 104 60 170 97
l120 68 3 -106 c1 -58 -1 -108 -5 -112z m-503 -895 l0 -895 -42 1 -43 2 35 6
35 6 0 863 c0 474 -2 869 -5 877 -4 11 -19 6 -68 -23 l-62 -36 0 -848 0 -847
33 -3 32 -3 -37 -6 -38 -5 0 861 0 860 73 42 c39 24 75 43 80 43 4 0 7 -403 7
-895z m498 444 c-22 -14 -310 -120 -315 -116 -2 2 68 31 154 65 l158 60 3 82
c3 96 26 95 -185 13 l-142 -56 -4 -91 -3 -91 -2 95 -2 95 163 64 c89 35 167
68 172 73 7 6 11 -24 13 -88 2 -71 -1 -100 -10 -105z m8 -436 c-3 -3 -60 -21
-128 -40 -68 -19 -144 -40 -170 -48 l-48 -14 0 92 0 92 173 55 172 55 3 -94
c1 -51 1 -96 -2 -98z m-7 -414 c-7 -4 -78 -24 -158 -44 -80 -20 -154 -38 -163
-41 -16 -5 -18 4 -18 89 l0 95 28 6 c15 3 92 23 172 45 l145 38 3 -90 c2 -63
-1 -93 -9 -98z m418 -218 c114 -27 223 -52 241 -56 l32 -7 0 -95 0 -96 -72 8
c-40 4 -149 12 -243 19 l-170 11 -3 133 c-1 72 -1 132 2 132 3 0 98 -22 213
-49z m-410 -217 c-2 -2 -71 -8 -153 -14 -82 -6 -159 -13 -171 -15 -22 -5 -23
-3 -23 69 l0 75 38 10 c20 6 95 22 166 36 72 14 132 28 135 31 3 3 7 -38 9
-91 1 -54 1 -99 -1 -101z m763 -203 c340 -29 498 -49 755 -92 161 -27 428 -88
440 -101 7 -7 7 -9 0 -5 -11 5 -364 40 -590 56 -931 70 -2094 57 -2855 -33
-101 -12 238 66 405 93 276 45 493 69 815 91 161 11 868 4 1030 -9z"/>
<path d="M7510 6523 c-87 -76 -300 -248 -347 -281 -32 -23 -33 -25 -33 -98 l0
-75 88 61 c140 97 267 194 267 205 1 19 23 50 31 42 4 -4 -1 -14 -12 -22 -10
-8 -14 -15 -8 -15 30 -1 56 81 31 97 -6 4 -7 1 -2 -7 6 -10 3 -12 -13 -8 -15
4 -25 0 -32 -10 -8 -15 -9 -15 -10 1 0 11 9 21 20 24 16 4 18 8 9 19 -8 10 -8
18 -1 27 6 6 10 16 10 22 1 17 19 17 26 0 3 -9 2 -13 -4 -10 -6 3 -10 2 -10
-3 0 -12 38 -23 45 -12 2 4 0 21 -5 39 -7 26 -5 33 13 46 11 8 19 16 16 19 -2
2 -38 -25 -79 -61z m37 2 c0 -8 -4 -12 -9 -9 -5 3 -6 10 -3 15 9 13 12 11 12
-6z m-57 -40 c-6 -8 -9 -19 -5 -25 3 -5 2 -10 -3 -10 -19 0 -21 14 -5 32 19
21 31 25 13 3z"/>
<path d="M6480 5139 l0 -1171 48 6 c26 4 62 10 80 13 l32 5 0 1159 0 1159 -80
0 -80 0 0 -1171z"/>
<path d="M7325 5934 c-71 -41 -145 -82 -162 -91 l-33 -17 0 -89 0 -89 158 82
c86 45 161 86 165 90 4 4 6 47 5 97 l-3 91 -130 -74z"/>
<path d="M7288 5047 l-158 -51 0 -78 c0 -43 2 -78 6 -78 6 0 156 42 257 71
l67 20 0 84 c0 47 -3 85 -7 84 -5 -1 -79 -24 -165 -52z"/>
<path d="M7400 4669 c-19 -6 -88 -24 -152 -41 l-118 -31 0 -82 0 -82 113 29
c61 16 136 36 165 44 l52 15 0 79 c0 87 1 85 -60 69z"/>
<path d="M7330 4225 c-63 -12 -134 -28 -157 -34 l-43 -12 0 -63 0 -62 68 7
c81 9 197 18 235 19 l27 0 0 85 c0 47 -3 85 -7 84 -5 0 -60 -11 -123 -24z"/>
<path d="M6403 3773 c9 -2 23 -2 30 0 6 3 -1 5 -18 5 -16 0 -22 -2 -12 -5z"/>
<path d="M6290 3760 c-19 -5 -57 -13 -85 -19 -45 -9 -43 -9 25 -4 41 3 79 8
84 11 5 3 39 4 75 3 36 -1 64 -1 61 2 -11 10 -127 15 -160 7z"/>
<path d="M6118 3723 c6 -2 18 -2 25 0 6 3 1 5 -13 5 -14 0 -19 -2 -12 -5z"/>
</g>
</svg>
